<?xml version="1.0" standalone="no"?>
<!DOCTYPE svg PUBLIC "-//W3C//DTD SVG 20010904//EN"
        "http://www.w3.org/TR/2001/REC-SVG-20010904/DTD/svg10.dtd">
<svg version="1.0" xmlns="http://www.w3.org/2000/svg"
     width="300.000000pt" height="147.000000pt" viewBox="0 0 300.000000 147.000000"
     preserveAspectRatio="xMidYMid meet">
    <metadata>
        Created by potrace 1.10, written by Peter Selinger 2001-2011
    </metadata>
    <g transform="translate(0.000000,147.000000) scale(0.100000,-0.100000)"
       fill="white" stroke="none">
        <path d="M438 1139 c-16 -9 -18 -27 -18 -140 0 -116 -2 -134 -20 -156 -18 -23
-20 -39 -18 -137 l2 -111 5 80 c7 100 24 108 69 35 17 -27 37 -50 44 -50 6 0
36 25 65 56 41 43 75 66 155 104 119 56 196 83 215 76 18 -7 19 -416 1 -434
-15 -15 -505 -17 -527 -3 -8 5 -18 31 -22 58 l-6 48 -2 -51 c0 -27 4 -55 11
-62 9 -9 84 -12 274 -12 144 0 269 3 278 6 14 5 16 37 16 250 0 208 -2 245
-15 250 -12 5 -15 25 -15 95 0 77 -2 90 -19 99 -26 13 -450 13 -473 -1z m193
-19 c10 -6 19 -20 19 -32 0 -11 10 -36 21 -55 12 -19 19 -36 16 -39 -3 -3 -24
-7 -46 -7 -23 -1 -41 -5 -41 -9 0 -4 -14 -15 -31 -23 -46 -24 -29 -28 22 -5
52 23 79 25 79 6 0 -16 -104 -39 -137 -30 -13 4 -23 14 -23 23 0 9 -9 34 -20
56 -22 42 -19 49 23 59 18 4 27 2 27 -6 0 -7 8 -4 18 8 9 12 28 27 40 34 13 6
22 14 19 17 -3 2 -23 -5 -44 -15 -21 -11 -56 -24 -77 -27 -46 -9 -54 -26 -29
-62 11 -15 24 -45 30 -66 11 -37 11 -38 -24 -52 -20 -8 -36 -15 -37 -15 0 0 0
56 2 125 l3 125 85 0 c47 0 94 -5 105 -10z m279 -80 l0 -90 -47 1 c-47 1 -47
1 -15 10 37 11 40 26 12 71 -11 18 -20 43 -20 56 0 35 -21 35 -85 2 -52 -26
-85 -37 -85 -27 0 1 -4 17 -9 35 l-10 32 130 0 129 0 0 -90z m-80 24 c0 -12
10 -33 21 -48 24 -31 25 -29 -20 -45 -27 -9 -36 -9 -43 1 -6 10 -8 10 -8 1 0
-12 -79 -68 -85 -61 -1 2 -6 17 -9 34 -5 24 -3 33 9 38 14 5 14 9 1 35 -14 27
-14 29 4 34 11 3 20 0 20 -6 1 -7 6 -6 13 3 7 9 28 25 47 37 37 23 50 18 50
-23z m118 -141 c2 -8 -6 -13 -21 -13 -36 0 -121 -32 -225 -84 -67 -34 -108
-62 -146 -103 l-53 -55 -34 48 c-38 57 -47 64 -67 56 -12 -4 -14 0 -8 24 4 16
14 37 23 46 23 25 91 54 158 67 33 7 70 14 83 17 15 3 22 0 22 -11 0 -21 23
-19 62 5 27 17 47 20 117 18 57 -2 86 -7 89 -15z"/>
        <path d="M2475 1138 c-31 -14 -84 -98 -106 -168 -25 -82 -36 -199 -20 -228 25
-46 131 -9 131 46 0 15 -5 33 -12 40 -9 9 -4 14 20 23 18 6 32 15 32 21 0 14
-41 -1 -67 -24 -18 -17 -20 -24 -11 -43 6 -13 8 -31 5 -39 -8 -21 -53 -21 -61
0 -30 78 46 352 97 348 9 -1 17 3 17 10 0 6 5 4 10 -4 6 -8 7 -28 4 -44 -5
-21 -3 -27 7 -24 17 6 18 23 6 60 -10 31 -25 39 -52 26z"/>
        <path d="M2300 1130 c0 -6 -3 -9 -7 -7 -5 3 -7 -74 -5 -171 2 -171 -3 -212
-27 -198 -16 10 -48 128 -70 255 -11 62 -22 115 -25 118 -3 3 -12 -2 -21 -11
-23 -22 -35 -124 -33 -261 3 -168 22 -143 28 38 4 105 9 150 19 159 11 11 12
5 7 -34 -4 -28 -3 -48 2 -48 5 0 7 -12 5 -27 -4 -23 -2 -25 7 -13 9 12 10 10
6 -12 -7 -32 13 -125 23 -109 8 12 36 -57 33 -76 -2 -7 2 -13 8 -13 24 0 48
21 59 51 14 41 15 355 1 364 -5 3 -10 1 -10 -5z"/>
        <path d="M1300 1098 c-19 -13 -36 -30 -38 -38 -3 -10 3 -8 19 6 13 12 34 25
47 29 12 3 22 11 22 16 0 15 -15 11 -50 -13z"/>
        <path d="M1087 1103 c-4 -3 -7 -91 -7 -194 0 -163 2 -188 15 -183 8 4 15 17
15 30 0 30 10 30 45 2 31 -24 65 -34 65 -18 0 5 -19 22 -42 37 -24 15 -45 28
-47 30 -2 1 8 18 23 38 41 54 88 161 93 213 3 35 2 43 -6 32 -6 -8 -11 -25
-11 -36 0 -40 -92 -224 -112 -224 -4 0 -8 63 -8 140 0 128 -4 152 -23 133z"/>
        <path d="M1759 1098 c-2 -7 -4 -94 -4 -193 l0 -180 71 1 c39 1 80 7 90 13 15
9 4 10 -51 8 l-70 -2 -5 172 c-3 107 -9 176 -16 183 -8 8 -12 8 -15 -2z"/>
        <path d="M1567 1072 c-20 -22 -61 -122 -72 -172 -4 -19 -13 -46 -20 -59 -12
-23 -13 -24 -22 -5 -6 10 -21 67 -34 127 -34 157 -57 133 -57 -58 1 -80 3
-100 9 -75 7 30 8 28 4 -15 -2 -27 -7 -58 -10 -68 -6 -13 -3 -16 9 -11 15 6
17 22 16 113 -1 58 0 120 0 136 l2 30 9 -35 c5 -19 6 -46 4 -60 -5 -20 -3 -22
6 -10 8 12 9 8 5 -18 -4 -23 -2 -31 6 -26 7 5 9 -1 5 -18 -5 -18 -1 -30 11
-41 30 -27 58 2 82 86 39 134 51 165 65 171 11 4 12 0 5 -19 -7 -18 -6 -25 3
-25 9 0 9 -2 0 -8 -16 -10 -21 -284 -5 -290 7 -2 14 2 16 10 7 20 14 317 9
339 -7 24 -25 24 -46 1z"/>
        <path d="M2018 1070 c-50 -30 -84 -135 -72 -219 11 -73 58 -98 97 -53 40 46
55 208 24 256 -19 29 -24 30 -49 16z m26 -42 c3 -13 6 -34 7 -48 0 -23 1 -23
9 -5 7 17 9 18 9 2 1 -9 -3 -25 -8 -35 -6 -9 -13 -38 -16 -63 -7 -59 -28 -90
-47 -71 -16 16 -16 174 0 215 14 33 37 35 46 5z"/>
        <path d="M1313 1042 c-33 -21 -61 -319 -29 -319 10 0 15 26 19 101 4 56 12
127 18 159 11 62 10 70 -8 59z"/>
        <path d="M1935 730 c-4 -6 17 -10 54 -10 34 0 61 4 61 10 0 6 -24 10 -54 10
-30 0 -58 -4 -61 -10z"/>
        <path d="M1080 519 l0 -82 46 6 c26 2 50 11 55 18 12 20 11 53 -3 67 -7 7 -12
24 -13 40 0 25 -4 27 -42 30 l-43 3 0 -82z m75 46 c0 -5 -15 -11 -32 -13 -25
-3 -33 1 -33 13 0 12 8 16 33 13 17 -2 32 -7 32 -13z m13 -67 c3 -22 -2 -29
-22 -34 -38 -9 -49 -1 -50 34 -1 32 0 33 34 30 30 -3 35 -7 38 -30z"/>
        <path d="M1249 581 c-33 -27 -33 -95 0 -122 13 -10 33 -19 45 -19 27 1 72 25
59 33 -5 3 -15 2 -23 -4 -24 -14 -56 -10 -73 9 -28 31 -20 37 45 37 61 0 63 1
60 25 -7 54 -69 77 -113 41z m89 -28 c14 -23 14 -23 -42 -23 -61 0 -65 4 -39
32 22 24 61 20 81 -9z"/>
        <path d="M1400 520 l0 -80 35 0 c71 0 114 45 99 104 -9 37 -41 56 -91 56 l-43
0 0 -80z m104 38 c9 -12 16 -30 16 -40 0 -28 -37 -58 -70 -58 -30 0 -30 0 -30
60 l0 60 34 0 c25 0 39 -7 50 -22z"/>
        <path d="M1580 530 c0 -38 -1 -73 -2 -77 -5 -13 53 -15 82 -3 53 22 63 103 17
135 -12 8 -38 15 -59 15 l-38 0 0 -70z m94 28 c9 -12 16 -30 16 -40 0 -28 -37
-58 -70 -58 -30 0 -30 0 -30 60 l0 60 34 0 c25 0 39 -7 50 -22z"/>
        <path d="M1750 520 c0 -47 4 -80 10 -80 6 0 10 33 10 80 0 47 -4 80 -10 80 -6
0 -10 -33 -10 -80z"/>
        <path d="M1810 518 c0 -45 4 -78 10 -78 6 0 10 28 10 65 0 62 1 65 27 71 36 9
53 -17 53 -83 0 -29 5 -53 10 -53 14 0 12 100 -3 130 -11 21 -20 25 -60 26
l-47 1 0 -79z"/>
        <path d="M1992 580 c-47 -44 -32 -112 31 -134 43 -16 77 6 77 49 0 19 -4 35
-9 35 -5 0 -16 3 -25 6 -9 3 -16 1 -16 -5 0 -6 7 -11 15 -11 10 0 15 -10 15
-30 0 -27 -3 -30 -30 -30 -42 0 -74 34 -65 68 11 46 25 55 73 48 39 -5 43 -4
32 9 -18 22 -72 19 -98 -5z"/>
    </g>
</svg>
