<svg xmlns="http://www.w3.org/2000/svg" xmlns:xlink="http://www.w3.org/1999/xlink" width="200" zoomAndPan="magnify" viewBox="0 0 150 30.000001" height="40" preserveAspectRatio="xMidYMid meet" version="1.0"><defs><g/><clipPath id="8519d13185"><path d="M 59.34375 18 L 87 18 L 87 25 L 59.34375 25 Z M 59.34375 18 " clip-rule="nonzero"/></clipPath><clipPath id="b703bcb63f"><path d="M 15.324219 10.0625 L 35.035156 10.0625 L 35.035156 21.480469 L 15.324219 21.480469 Z M 15.324219 10.0625 " clip-rule="nonzero"/></clipPath><clipPath id="e0009d93d4"><path d="M 18.414062 6.972656 L 37.824219 6.972656 L 37.824219 18.371094 L 18.414062 18.371094 Z M 18.414062 6.972656 " clip-rule="nonzero"/></clipPath></defs><g fill="#000000" fill-opacity="1"><g transform="translate(40.866329, 16.322631)"><g><path d="M 2.332031 -3.375 L 4.71875 0 L 6.964844 0 L 3.953125 -3.777344 L 6.851562 -7.550781 L 4.71875 -7.550781 L 2.332031 -4.175781 L 2.332031 -7.550781 L 0.667969 -7.550781 L 0.667969 0 L 2.332031 0 Z M 2.332031 -3.375 "/></g></g></g><g fill="#000000" fill-opacity="1"><g transform="translate(49.939334, 16.322631)"><g><path d="M 2.332031 0 L 2.332031 -7.550781 L 0.667969 -7.550781 L 0.667969 0 Z M 2.332031 0 "/></g></g></g><g fill="#000000" fill-opacity="1"><g transform="translate(55.158811, 16.322631)"><g><path d="M 10.082031 0 L 8.617188 -7.550781 L 6.640625 -7.550781 L 5.074219 -2.253906 L 3.5 -7.550781 L 1.519531 -7.550781 L 0.0546875 0 L 1.886719 0 L 2.777344 -5.207031 L 4.253906 0 L 5.886719 0 L 7.363281 -5.207031 L 8.25 0 Z M 10.082031 0 "/></g></g></g><g fill="#000000" fill-opacity="1"><g transform="translate(67.518975, 16.322631)"><g/></g></g><g fill="#000000" fill-opacity="1"><g transform="translate(72.516346, 16.322631)"><g><path d="M 0.667969 0 L 5.042969 0 L 5.042969 -1.511719 L 2.332031 -1.511719 L 2.332031 -7.550781 L 0.667969 -7.550781 Z M 0.667969 0 "/></g></g></g><g fill="#000000" fill-opacity="1"><g transform="translate(80.167876, 16.322631)"><g><path d="M 6.496094 -3.785156 C 6.496094 -2.621094 5.441406 -1.554688 4.277344 -1.554688 C 3.109375 -1.554688 2.054688 -2.621094 2.054688 -3.785156 C 2.054688 -4.953125 3.109375 -6.007812 4.277344 -6.007812 C 5.441406 -6.007812 6.496094 -4.953125 6.496094 -3.785156 Z M 8.164062 -3.777344 C 8.164062 -5.863281 6.363281 -7.664062 4.277344 -7.664062 C 2.1875 -7.664062 0.390625 -5.863281 0.390625 -3.777344 C 0.390625 -1.6875 2.1875 0.109375 4.277344 0.109375 C 6.363281 0.109375 8.164062 -1.6875 8.164062 -3.777344 Z M 8.164062 -3.777344 "/></g></g></g><g fill="#000000" fill-opacity="1"><g transform="translate(90.939985, 16.322631)"><g><path d="M 6.597656 0 L 6.597656 -7.550781 L 4.929688 -7.550781 L 4.929688 -2.84375 L 2.332031 -7.550781 L 0.667969 -7.550781 L 0.667969 0 L 2.332031 0 L 2.332031 -4.707031 L 4.929688 0 Z M 6.597656 0 "/></g></g></g><g fill="#000000" fill-opacity="1"><g transform="translate(100.423883, 16.322631)"><g><path d="M 4.441406 -6.109375 C 5.175781 -6.109375 5.929688 -5.808594 6.296875 -5.007812 L 8.128906 -5.007812 C 7.605469 -6.574219 6.109375 -7.664062 4.441406 -7.664062 C 2.308594 -7.664062 0.554688 -5.90625 0.554688 -3.777344 C 0.554688 -1.644531 2.308594 0.109375 4.441406 0.109375 C 6.597656 0.109375 8.316406 -1.632812 8.316406 -3.777344 L 8.316406 -4.03125 L 4.597656 -4.03125 L 4.597656 -2.777344 L 6.519531 -2.777344 C 6.109375 -1.632812 5.175781 -1.398438 4.441406 -1.398438 C 3.242188 -1.398438 2.242188 -2.476562 2.242188 -3.753906 C 2.242188 -5.03125 3.242188 -6.109375 4.441406 -6.109375 Z M 4.441406 -6.109375 "/></g></g></g><g clip-path="url(#8519d13185)"><path fill="#ffae42" d="M 59.578125 18.707031 C 60.300781 19.453125 61.105469 20.136719 61.988281 20.757812 C 62.867188 21.378906 63.8125 21.925781 64.820312 22.402344 C 65.828125 22.878906 66.882812 23.273438 67.980469 23.585938 C 69.082031 23.898438 70.207031 24.125 71.355469 24.265625 C 72.507812 24.402344 73.664062 24.453125 74.828125 24.414062 C 75.992188 24.375 77.140625 24.25 78.273438 24.03125 C 79.40625 23.816406 80.503906 23.515625 81.566406 23.128906 C 82.632812 22.742188 83.640625 22.28125 84.597656 21.738281 C 85.199219 21.449219 85.699219 21.113281 86.101562 20.726562 C 86.25 20.542969 86.257812 20.347656 86.132812 20.144531 C 86.007812 19.941406 85.832031 19.867188 85.601562 19.917969 C 84.800781 20.382812 83.96875 20.789062 83.097656 21.132812 C 82.148438 21.421875 81.15625 21.660156 80.125 21.847656 C 79.097656 22.035156 78.042969 22.167969 76.964844 22.25 C 75.890625 22.328125 74.808594 22.355469 73.722656 22.324219 C 72.640625 22.292969 71.566406 22.210938 70.511719 22.070312 C 69.457031 21.929688 68.433594 21.742188 67.441406 21.496094 C 66.449219 21.253906 65.507812 20.960938 64.613281 20.621094 C 63.722656 20.28125 62.894531 19.902344 62.132812 19.476562 C 61.371094 19.054688 60.683594 18.59375 60.078125 18.101562 C 59.996094 18.03125 59.898438 18 59.792969 18.011719 C 59.683594 18.023438 59.597656 18.070312 59.527344 18.152344 C 59.457031 18.234375 59.429688 18.332031 59.4375 18.441406 C 59.449219 18.546875 59.496094 18.636719 59.578125 18.707031 " fill-opacity="1" fill-rule="nonzero"/></g><path fill="#ffae42" d="M 81.597656 17.898438 C 92.082031 16.84375 92.6875 19.414062 84.265625 25.304688 C 84.09375 25.417969 83.933594 25.429688 83.789062 25.339844 C 83.640625 25.246094 83.617188 25.125 83.71875 24.96875 C 89.140625 19.320312 89.140625 19.320312 81.390625 18.511719 C 81.214844 18.460938 81.152344 18.351562 81.207031 18.183594 C 81.261719 18.019531 81.390625 17.925781 81.597656 17.898438 " fill-opacity="1" fill-rule="nonzero"/><g clip-path="url(#b703bcb63f)"><path fill="#ffae42" d="M 31.289062 20.152344 C 31.339844 20.152344 31.386719 20.160156 31.429688 20.179688 C 32.230469 20.519531 32.929688 20.71875 33.453125 20.753906 C 33.847656 20.78125 34.132812 20.71875 34.238281 20.578125 C 34.402344 20.355469 34.21875 19.710938 33.4375 18.785156 C 33.367188 18.703125 33.335938 18.59375 33.355469 18.488281 C 33.691406 16.691406 33.691406 14.871094 33.355469 13.074219 C 33.335938 12.96875 33.367188 12.859375 33.4375 12.777344 C 33.835938 12.304688 34.109375 11.875 34.230469 11.53125 C 34.28125 11.386719 34.347656 11.128906 34.246094 10.988281 C 34.089844 10.777344 33.300781 10.585938 31.4375 11.378906 C 31.382812 11.402344 31.324219 11.414062 31.265625 11.40625 L 29.351562 11.253906 C 26.539062 11.027344 23.804688 11.027344 20.992188 11.253906 L 19.078125 11.40625 C 19.019531 11.414062 18.960938 11.402344 18.90625 11.378906 C 17.039062 10.585938 16.253906 10.777344 16.097656 10.988281 C 15.933594 11.207031 16.121094 11.847656 16.90625 12.777344 C 16.976562 12.859375 17.003906 12.96875 16.984375 13.074219 C 16.652344 14.871094 16.652344 16.691406 16.984375 18.488281 C 17.003906 18.59375 16.976562 18.703125 16.90625 18.785156 C 16.125 19.710938 15.941406 20.355469 16.105469 20.578125 C 16.210938 20.71875 16.496094 20.78125 16.890625 20.753906 C 17.414062 20.71875 18.113281 20.519531 18.910156 20.179688 C 18.960938 20.15625 19.015625 20.148438 19.070312 20.152344 C 19.28125 20.160156 19.574219 20.1875 19.945312 20.21875 C 21.027344 20.316406 22.835938 20.476562 25.171875 20.476562 C 25.183594 20.476562 25.199219 20.476562 25.210938 20.476562 C 27.527344 20.476562 29.320312 20.316406 30.398438 20.222656 C 30.769531 20.1875 31.0625 20.160156 31.273438 20.152344 C 31.277344 20.152344 31.285156 20.152344 31.289062 20.152344 Z M 33.628906 21.480469 C 33.003906 21.480469 32.195312 21.277344 31.226562 20.875 C 31.035156 20.886719 30.777344 20.910156 30.460938 20.9375 C 29.375 21.035156 27.558594 21.195312 25.210938 21.195312 C 25.195312 21.195312 25.183594 21.195312 25.171875 21.195312 C 22.804688 21.195312 20.976562 21.03125 19.882812 20.9375 C 19.566406 20.90625 19.308594 20.886719 19.113281 20.875 C 17.296875 21.632812 16.027344 21.679688 15.527344 21.003906 C 15.371094 20.789062 15.226562 20.40625 15.441406 19.789062 C 15.582031 19.390625 15.851562 18.941406 16.25 18.453125 C 15.941406 16.679688 15.9375 14.882812 16.25 13.109375 C 15.121094 11.722656 15.226562 10.960938 15.519531 10.5625 C 16.019531 9.882812 17.292969 9.929688 19.105469 10.683594 L 20.933594 10.535156 C 23.785156 10.304688 26.558594 10.304688 29.410156 10.535156 L 31.238281 10.683594 C 33.050781 9.929688 34.324219 9.882812 34.824219 10.5625 C 35.117188 10.960938 35.21875 11.722656 34.09375 13.109375 C 34.402344 14.882812 34.402344 16.679688 34.09375 18.453125 C 34.488281 18.941406 34.761719 19.390625 34.902344 19.789062 C 35.117188 20.40625 34.972656 20.789062 34.816406 21.003906 C 34.582031 21.320312 34.179688 21.480469 33.628906 21.480469 " fill-opacity="1" fill-rule="nonzero"/></g><g clip-path="url(#e0009d93d4)"><path fill="#ffae42" d="M 36.738281 18.367188 C 36.230469 18.367188 35.601562 18.234375 34.867188 17.96875 C 34.679688 17.902344 34.582031 17.695312 34.652344 17.507812 C 34.71875 17.320312 34.925781 17.226562 35.113281 17.292969 C 36.597656 17.832031 37.21875 17.652344 37.351562 17.460938 C 37.511719 17.234375 37.324219 16.59375 36.546875 15.671875 C 36.476562 15.589844 36.449219 15.480469 36.46875 15.375 C 36.800781 13.578125 36.800781 11.757812 36.46875 9.960938 C 36.449219 9.855469 36.476562 9.746094 36.546875 9.664062 C 36.945312 9.191406 37.21875 8.761719 37.339844 8.417969 C 37.390625 8.277344 37.460938 8.015625 37.355469 7.875 C 37.199219 7.664062 36.414062 7.476562 34.546875 8.269531 C 34.492188 8.292969 34.433594 8.300781 34.378906 8.296875 L 32.464844 8.140625 C 29.648438 7.914062 26.914062 7.914062 24.101562 8.140625 L 22.1875 8.296875 C 22.128906 8.300781 22.070312 8.292969 22.019531 8.269531 C 20.152344 7.476562 19.367188 7.664062 19.210938 7.875 C 19.046875 8.09375 19.226562 8.722656 19.992188 9.632812 C 20.117188 9.785156 20.097656 10.011719 19.945312 10.140625 C 19.792969 10.265625 19.566406 10.246094 19.441406 10.09375 C 18.226562 8.644531 18.332031 7.855469 18.632812 7.449219 C 19.132812 6.773438 20.402344 6.816406 22.21875 7.574219 L 24.042969 7.425781 C 26.894531 7.195312 29.667969 7.195312 32.519531 7.425781 L 34.347656 7.574219 C 36.164062 6.816406 37.433594 6.773438 37.933594 7.449219 C 38.226562 7.847656 38.332031 8.613281 37.203125 9.996094 C 37.515625 11.769531 37.515625 13.566406 37.203125 15.339844 C 38.3125 16.707031 38.222656 17.46875 37.941406 17.871094 C 37.65625 18.28125 37.128906 18.367188 36.738281 18.367188 " fill-opacity="1" fill-rule="nonzero"/></g></svg>