<svg xmlns="http://www.w3.org/2000/svg" xmlns:xlink="http://www.w3.org/1999/xlink" width="200" zoomAndPan="magnify" viewBox="0 0 150 30.000001" height="40" preserveAspectRatio="xMidYMid meet" version="1.0"><defs><g/><clipPath id="83de9ee13d"><path d="M 59.34375 18 L 87 18 L 87 25 L 59.34375 25 Z M 59.34375 18 " clip-rule="nonzero"/></clipPath><clipPath id="492300c0ec"><path d="M 18.320312 2.902344 L 38.644531 2.902344 L 38.644531 18.871094 L 18.320312 18.871094 Z M 18.320312 2.902344 " clip-rule="nonzero"/></clipPath></defs><g fill="#ffffff" fill-opacity="1"><g transform="translate(40.866329, 16.32263)"><g><path d="M 2.332031 -3.375 L 4.71875 0 L 6.964844 0 L 3.953125 -3.777344 L 6.851562 -7.550781 L 4.71875 -7.550781 L 2.332031 -4.175781 L 2.332031 -7.550781 L 0.667969 -7.550781 L 0.667969 0 L 2.332031 0 Z M 2.332031 -3.375 "/></g></g></g><g fill="#ffffff" fill-opacity="1"><g transform="translate(49.939334, 16.32263)"><g><path d="M 2.332031 0 L 2.332031 -7.550781 L 0.667969 -7.550781 L 0.667969 0 Z M 2.332031 0 "/></g></g></g><g fill="#ffffff" fill-opacity="1"><g transform="translate(55.158811, 16.32263)"><g><path d="M 10.082031 0 L 8.617188 -7.550781 L 6.640625 -7.550781 L 5.074219 -2.253906 L 3.5 -7.550781 L 1.519531 -7.550781 L 0.0546875 0 L 1.886719 0 L 2.777344 -5.207031 L 4.253906 0 L 5.886719 0 L 7.363281 -5.207031 L 8.25 0 Z M 10.082031 0 "/></g></g></g><g fill="#ffffff" fill-opacity="1"><g transform="translate(67.518975, 16.32263)"><g/></g></g><g fill="#ffffff" fill-opacity="1"><g transform="translate(72.516346, 16.32263)"><g><path d="M 0.667969 0 L 5.042969 0 L 5.042969 -1.511719 L 2.332031 -1.511719 L 2.332031 -7.550781 L 0.667969 -7.550781 Z M 0.667969 0 "/></g></g></g><g fill="#ffffff" fill-opacity="1"><g transform="translate(80.167876, 16.32263)"><g><path d="M 6.496094 -3.785156 C 6.496094 -2.621094 5.441406 -1.554688 4.277344 -1.554688 C 3.109375 -1.554688 2.054688 -2.621094 2.054688 -3.785156 C 2.054688 -4.953125 3.109375 -6.007812 4.277344 -6.007812 C 5.441406 -6.007812 6.496094 -4.953125 6.496094 -3.785156 Z M 8.164062 -3.777344 C 8.164062 -5.863281 6.363281 -7.664062 4.277344 -7.664062 C 2.1875 -7.664062 0.390625 -5.863281 0.390625 -3.777344 C 0.390625 -1.6875 2.1875 0.109375 4.277344 0.109375 C 6.363281 0.109375 8.164062 -1.6875 8.164062 -3.777344 Z M 8.164062 -3.777344 "/></g></g></g><g fill="#ffffff" fill-opacity="1"><g transform="translate(90.939985, 16.32263)"><g><path d="M 6.597656 0 L 6.597656 -7.550781 L 4.929688 -7.550781 L 4.929688 -2.84375 L 2.332031 -7.550781 L 0.667969 -7.550781 L 0.667969 0 L 2.332031 0 L 2.332031 -4.707031 L 4.929688 0 Z M 6.597656 0 "/></g></g></g><g fill="#ffffff" fill-opacity="1"><g transform="translate(100.423883, 16.32263)"><g><path d="M 4.441406 -6.109375 C 5.175781 -6.109375 5.929688 -5.808594 6.296875 -5.007812 L 8.128906 -5.007812 C 7.605469 -6.574219 6.109375 -7.664062 4.441406 -7.664062 C 2.308594 -7.664062 0.554688 -5.90625 0.554688 -3.777344 C 0.554688 -1.644531 2.308594 0.109375 4.441406 0.109375 C 6.597656 0.109375 8.316406 -1.632812 8.316406 -3.777344 L 8.316406 -4.03125 L 4.597656 -4.03125 L 4.597656 -2.777344 L 6.519531 -2.777344 C 6.109375 -1.632812 5.175781 -1.398438 4.441406 -1.398438 C 3.242188 -1.398438 2.242188 -2.476562 2.242188 -3.753906 C 2.242188 -5.03125 3.242188 -6.109375 4.441406 -6.109375 Z M 4.441406 -6.109375 "/></g></g></g><g clip-path="url(#83de9ee13d)"><path fill="#ffae42" d="M 59.578125 18.707031 C 60.300781 19.453125 61.105469 20.136719 61.988281 20.757812 C 62.867188 21.378906 63.8125 21.925781 64.820312 22.402344 C 65.828125 22.878906 66.882812 23.273438 67.980469 23.585938 C 69.082031 23.898438 70.207031 24.125 71.355469 24.265625 C 72.507812 24.402344 73.664062 24.453125 74.828125 24.414062 C 75.992188 24.375 77.140625 24.25 78.273438 24.03125 C 79.40625 23.816406 80.503906 23.515625 81.566406 23.128906 C 82.632812 22.742188 83.640625 22.28125 84.597656 21.738281 C 85.199219 21.449219 85.699219 21.113281 86.101562 20.726562 C 86.25 20.542969 86.257812 20.347656 86.132812 20.144531 C 86.007812 19.941406 85.832031 19.867188 85.601562 19.917969 C 84.800781 20.382812 83.96875 20.789062 83.097656 21.132812 C 82.148438 21.421875 81.15625 21.660156 80.125 21.847656 C 79.097656 22.035156 78.042969 22.167969 76.964844 22.25 C 75.890625 22.328125 74.808594 22.355469 73.722656 22.324219 C 72.640625 22.292969 71.566406 22.210938 70.511719 22.070312 C 69.457031 21.929688 68.433594 21.742188 67.441406 21.496094 C 66.449219 21.253906 65.507812 20.960938 64.613281 20.621094 C 63.722656 20.28125 62.894531 19.902344 62.132812 19.476562 C 61.371094 19.054688 60.683594 18.59375 60.078125 18.101562 C 59.996094 18.03125 59.898438 18 59.792969 18.011719 C 59.683594 18.023438 59.597656 18.070312 59.527344 18.152344 C 59.457031 18.234375 59.429688 18.332031 59.4375 18.441406 C 59.449219 18.546875 59.496094 18.636719 59.578125 18.707031 " fill-opacity="1" fill-rule="nonzero"/></g><path fill="#ffae42" d="M 81.597656 17.898438 C 92.082031 16.84375 92.6875 19.414062 84.265625 25.304688 C 84.09375 25.417969 83.933594 25.429688 83.789062 25.339844 C 83.640625 25.246094 83.617188 25.125 83.71875 24.96875 C 89.140625 19.320312 89.140625 19.320312 81.390625 18.511719 C 81.214844 18.460938 81.152344 18.351562 81.207031 18.183594 C 81.261719 18.019531 81.390625 17.925781 81.597656 17.898438 " fill-opacity="1" fill-rule="nonzero"/><g clip-path="url(#492300c0ec)"><path fill="#ffae42" d="M 38.292969 11.371094 L 28.5625 2.976562 C 28.507812 2.929688 28.4375 2.90625 28.367188 2.914062 C 28.300781 2.90625 28.230469 2.929688 28.175781 2.976562 L 18.445312 11.371094 C 18.332031 11.46875 18.320312 11.636719 18.417969 11.75 C 18.46875 11.8125 18.546875 11.84375 18.621094 11.84375 C 18.683594 11.84375 18.746094 11.820312 18.796875 11.777344 L 20.777344 10.070312 L 20.777344 16.773438 C 20.777344 18.085938 21.84375 19.148438 23.152344 19.148438 L 33.585938 19.148438 C 34.894531 19.148438 35.960938 18.085938 35.960938 16.773438 L 35.960938 10.070312 L 37.941406 11.777344 C 37.992188 11.820312 38.054688 11.84375 38.117188 11.84375 C 38.191406 11.84375 38.265625 11.8125 38.320312 11.75 C 38.417969 11.636719 38.402344 11.46875 38.292969 11.371094 Z M 35.425781 16.773438 C 35.425781 17.789062 34.601562 18.613281 33.585938 18.613281 L 23.152344 18.613281 C 22.136719 18.613281 21.3125 17.789062 21.3125 16.773438 L 21.3125 9.605469 L 28.367188 3.519531 L 35.425781 9.605469 Z M 23.664062 12.347656 C 23.664062 12.199219 23.546875 12.082031 23.398438 12.082031 C 23.25 12.082031 23.128906 12.199219 23.128906 12.347656 L 23.128906 17.019531 C 23.128906 17.167969 23.25 17.289062 23.398438 17.289062 C 23.546875 17.289062 23.664062 17.167969 23.664062 17.019531 L 23.664062 15.8125 L 33.070312 15.8125 L 33.070312 17.019531 C 33.070312 17.167969 33.191406 17.289062 33.339844 17.289062 C 33.488281 17.289062 33.609375 17.167969 33.609375 17.019531 L 33.609375 14.105469 C 33.609375 13.957031 33.488281 13.835938 33.339844 13.835938 C 33.191406 13.835938 33.070312 13.957031 33.070312 14.105469 L 33.070312 15.277344 L 23.664062 15.277344 Z M 24.761719 14.972656 L 26.25 14.972656 C 26.691406 14.972656 27.050781 14.613281 27.050781 14.167969 L 27.050781 14.109375 C 27.050781 13.667969 26.691406 13.308594 26.25 13.308594 L 24.761719 13.308594 C 24.320312 13.308594 23.960938 13.667969 23.960938 14.109375 L 23.960938 14.167969 C 23.960938 14.613281 24.320312 14.972656 24.761719 14.972656 Z M 24.496094 14.109375 C 24.496094 13.960938 24.613281 13.84375 24.761719 13.84375 L 26.25 13.84375 C 26.398438 13.84375 26.515625 13.960938 26.515625 14.109375 L 26.515625 14.167969 C 26.515625 14.316406 26.398438 14.4375 26.25 14.4375 L 24.761719 14.4375 C 24.613281 14.4375 24.496094 14.316406 24.496094 14.167969 Z M 24.496094 14.109375 " fill-opacity="1" fill-rule="nonzero"/></g></svg>