<svg xmlns="http://www.w3.org/2000/svg" xmlns:xlink="http://www.w3.org/1999/xlink" width="200" zoomAndPan="magnify" viewBox="0 0 150 30.000001" height="40" preserveAspectRatio="xMidYMid meet" version="1.0"><defs><g/><clipPath id="adc676fdfb"><path d="M 24.148438 4.496094 L 48.90625 4.496094 L 48.90625 18.757812 L 24.148438 18.757812 Z M 24.148438 4.496094 " clip-rule="nonzero"/></clipPath><clipPath id="6348109bdb"><path d="M 28.027344 0.613281 L 52.453125 0.613281 L 52.453125 14.933594 L 28.027344 14.933594 Z M 28.027344 0.613281 " clip-rule="nonzero"/></clipPath><clipPath id="2ee3a79e37"><path d="M 65.886719 20 L 94 20 L 94 27 L 65.886719 27 Z M 65.886719 20 " clip-rule="nonzero"/></clipPath></defs><g clip-path="url(#adc676fdfb)"><path fill="#ffae42" d="M 44.203125 17.167969 C 44.261719 17.167969 44.324219 17.179688 44.378906 17.203125 C 45.378906 17.628906 46.257812 17.878906 46.917969 17.925781 C 47.414062 17.960938 47.773438 17.882812 47.902344 17.707031 C 48.109375 17.421875 47.882812 16.617188 46.898438 15.453125 C 46.808594 15.347656 46.773438 15.210938 46.796875 15.078125 C 47.214844 12.820312 47.21875 10.535156 46.796875 8.277344 C 46.773438 8.144531 46.808594 8.007812 46.898438 7.90625 C 47.398438 7.3125 47.742188 6.769531 47.894531 6.339844 C 47.957031 6.160156 48.042969 5.835938 47.914062 5.65625 C 47.71875 5.394531 46.730469 5.15625 44.386719 6.152344 C 44.316406 6.179688 44.246094 6.191406 44.171875 6.1875 L 41.765625 5.992188 C 38.234375 5.707031 34.796875 5.707031 31.265625 5.992188 L 28.859375 6.1875 C 28.785156 6.191406 28.714844 6.179688 28.648438 6.152344 C 26.304688 5.15625 25.316406 5.394531 25.121094 5.65625 C 24.914062 5.9375 25.148438 6.738281 26.132812 7.90625 C 26.222656 8.007812 26.257812 8.144531 26.234375 8.277344 C 25.816406 10.535156 25.816406 12.820312 26.234375 15.078125 C 26.257812 15.210938 26.222656 15.347656 26.136719 15.453125 C 25.152344 16.617188 24.921875 17.421875 25.128906 17.707031 C 25.257812 17.882812 25.617188 17.960938 26.113281 17.925781 C 26.773438 17.878906 27.652344 17.628906 28.652344 17.203125 C 28.714844 17.175781 28.785156 17.164062 28.851562 17.167969 C 29.117188 17.179688 29.484375 17.214844 29.953125 17.253906 C 31.3125 17.375 33.585938 17.578125 36.515625 17.578125 C 36.53125 17.578125 36.546875 17.578125 36.566406 17.578125 C 39.472656 17.578125 41.730469 17.378906 43.082031 17.257812 C 43.546875 17.214844 43.914062 17.179688 44.179688 17.167969 C 44.1875 17.167969 44.195312 17.167969 44.203125 17.167969 Z M 47.140625 18.835938 C 46.355469 18.835938 45.335938 18.582031 44.125 18.074219 C 43.882812 18.089844 43.558594 18.121094 43.160156 18.15625 C 41.792969 18.277344 39.511719 18.480469 36.566406 18.480469 C 36.546875 18.480469 36.53125 18.480469 36.515625 18.480469 C 33.542969 18.480469 31.246094 18.277344 29.871094 18.15625 C 29.476562 18.121094 29.148438 18.089844 28.910156 18.074219 C 26.625 19.027344 25.027344 19.089844 24.402344 18.242188 C 24.203125 17.972656 24.023438 17.488281 24.292969 16.710938 C 24.46875 16.210938 24.8125 15.648438 25.308594 15.035156 C 24.917969 12.804688 24.917969 10.550781 25.308594 8.324219 C 23.894531 6.582031 24.023438 5.625 24.394531 5.121094 C 25.019531 4.269531 26.617188 4.328125 28.898438 5.277344 L 31.191406 5.09375 C 34.773438 4.800781 38.257812 4.800781 41.839844 5.09375 L 44.136719 5.277344 C 46.414062 4.328125 48.011719 4.269531 48.640625 5.121094 C 49.007812 5.625 49.136719 6.582031 47.722656 8.324219 C 48.113281 10.550781 48.113281 12.804688 47.722656 15.035156 C 48.222656 15.648438 48.5625 16.210938 48.738281 16.710938 C 49.007812 17.488281 48.828125 17.972656 48.628906 18.242188 C 48.335938 18.636719 47.828125 18.835938 47.140625 18.835938 " fill-opacity="1" fill-rule="nonzero"/></g><g clip-path="url(#6348109bdb)"><path fill="#ffae42" d="M 51.046875 14.929688 C 51.042969 14.929688 51.042969 14.929688 51.042969 14.929688 C 50.40625 14.929688 49.617188 14.757812 48.695312 14.425781 C 48.460938 14.339844 48.339844 14.082031 48.421875 13.847656 C 48.507812 13.613281 48.765625 13.492188 49 13.578125 C 50.871094 14.253906 51.648438 14.03125 51.816406 13.792969 C 52.015625 13.503906 51.78125 12.699219 50.804688 11.542969 C 50.71875 11.441406 50.679688 11.304688 50.707031 11.171875 C 51.125 8.914062 51.125 6.625 50.707031 4.371094 C 50.679688 4.238281 50.71875 4.101562 50.804688 3.996094 C 51.304688 3.40625 51.652344 2.863281 51.800781 2.429688 C 51.863281 2.253906 51.949219 1.925781 51.820312 1.75 C 51.625 1.484375 50.636719 1.246094 48.292969 2.242188 C 48.226562 2.273438 48.152344 2.285156 48.078125 2.277344 L 45.675781 2.082031 C 42.140625 1.796875 38.707031 1.796875 35.171875 2.082031 L 32.769531 2.277344 C 32.695312 2.285156 32.621094 2.273438 32.554688 2.242188 C 30.210938 1.25 29.222656 1.484375 29.027344 1.75 C 28.824219 2.023438 29.050781 2.8125 30.007812 3.957031 C 30.167969 4.148438 30.144531 4.433594 29.953125 4.59375 C 29.761719 4.753906 29.476562 4.726562 29.316406 4.535156 C 27.792969 2.714844 27.921875 1.722656 28.300781 1.210938 C 28.929688 0.363281 30.527344 0.421875 32.804688 1.371094 L 35.101562 1.183594 C 38.683594 0.894531 42.164062 0.894531 45.746094 1.183594 L 48.042969 1.371094 C 50.320312 0.417969 51.917969 0.363281 52.546875 1.214844 C 52.917969 1.714844 53.046875 2.675781 51.632812 4.414062 C 52.019531 6.640625 52.019531 8.898438 51.628906 11.125 C 53.023438 12.839844 52.910156 13.800781 52.554688 14.304688 C 52.199219 14.820312 51.539062 14.929688 51.046875 14.929688 " fill-opacity="1" fill-rule="nonzero"/></g><g clip-path="url(#2ee3a79e37)"><path fill="#ffae42" d="M 66.125 20.714844 C 66.863281 21.460938 67.683594 22.144531 68.585938 22.765625 C 69.488281 23.386719 70.453125 23.933594 71.480469 24.410156 C 72.511719 24.886719 73.589844 25.28125 74.710938 25.59375 C 75.835938 25.90625 76.984375 26.132812 78.160156 26.273438 C 79.335938 26.410156 80.519531 26.460938 81.707031 26.421875 C 82.894531 26.382812 84.070312 26.253906 85.226562 26.039062 C 86.382812 25.824219 87.507812 25.523438 88.59375 25.136719 C 89.683594 24.75 90.714844 24.289062 91.691406 23.746094 C 92.304688 23.457031 92.816406 23.121094 93.226562 22.734375 C 93.378906 22.550781 93.386719 22.355469 93.261719 22.152344 C 93.132812 21.949219 92.949219 21.875 92.714844 21.925781 C 91.898438 22.390625 91.046875 22.792969 90.160156 23.140625 C 89.1875 23.429688 88.175781 23.667969 87.121094 23.855469 C 86.070312 24.042969 84.992188 24.175781 83.890625 24.257812 C 82.792969 24.335938 81.6875 24.359375 80.578125 24.332031 C 79.46875 24.300781 78.375 24.21875 77.296875 24.078125 C 76.21875 23.9375 75.171875 23.746094 74.160156 23.503906 C 73.144531 23.261719 72.183594 22.96875 71.269531 22.628906 C 70.359375 22.289062 69.515625 21.910156 68.734375 21.484375 C 67.953125 21.0625 67.253906 20.601562 66.636719 20.109375 C 66.550781 20.039062 66.453125 20.007812 66.34375 20.019531 C 66.234375 20.027344 66.144531 20.074219 66.074219 20.160156 C 66 20.242188 65.972656 20.339844 65.980469 20.449219 C 65.992188 20.554688 66.039062 20.644531 66.125 20.714844 " fill-opacity="1" fill-rule="nonzero"/></g><path fill="#ffae42" d="M 88.625 19.90625 C 99.335938 18.851562 99.957031 21.421875 91.351562 27.3125 C 91.175781 27.425781 91.011719 27.4375 90.863281 27.34375 C 90.710938 27.253906 90.6875 27.132812 90.792969 26.976562 C 96.332031 21.328125 96.332031 21.328125 88.414062 20.519531 C 88.230469 20.464844 88.167969 20.355469 88.226562 20.191406 C 88.28125 20.027344 88.414062 19.929688 88.625 19.90625 " fill-opacity="1" fill-rule="nonzero"/><g fill="#ffffff" fill-opacity="1"><g transform="translate(56.48146, 12.9958)"><g><path d="M 2.246094 -3.25 L 4.542969 0 L 6.703125 0 L 3.804688 -3.636719 L 6.597656 -7.269531 L 4.542969 -7.269531 L 2.246094 -4.019531 L 2.246094 -7.269531 L 0.640625 -7.269531 L 0.640625 0 L 2.246094 0 Z M 2.246094 -3.25 "/></g></g></g><g fill="#ffffff" fill-opacity="1"><g transform="translate(65.211969, 12.9958)"><g><path d="M 2.246094 0 L 2.246094 -7.269531 L 0.640625 -7.269531 L 0.640625 0 Z M 2.246094 0 "/></g></g></g><g fill="#ffffff" fill-opacity="1"><g transform="translate(70.23549, 12.9958)"><g><path d="M 9.707031 0 L 8.296875 -7.269531 L 6.394531 -7.269531 L 4.886719 -2.171875 L 3.367188 -7.269531 L 1.464844 -7.269531 L 0.0546875 0 L 1.816406 0 L 2.671875 -5.015625 L 4.09375 0 L 5.667969 0 L 7.089844 -5.015625 L 7.945312 0 Z M 9.707031 0 "/></g></g></g><g fill="#ffffff" fill-opacity="1"><g transform="translate(82.128157, 12.9958)"><g/></g></g><g fill="#ffffff" fill-opacity="1"><g transform="translate(86.938009, 12.9958)"><g><path d="M 0.640625 0 L 4.855469 0 L 4.855469 -1.453125 L 2.246094 -1.453125 L 2.246094 -7.269531 L 0.640625 -7.269531 Z M 0.640625 0 "/></g></g></g><g fill="#ffffff" fill-opacity="1"><g transform="translate(94.301097, 12.9958)"><g><path d="M 6.253906 -3.644531 C 6.253906 -2.523438 5.238281 -1.496094 4.117188 -1.496094 C 2.992188 -1.496094 1.976562 -2.523438 1.976562 -3.644531 C 1.976562 -4.769531 2.992188 -5.785156 4.117188 -5.785156 C 5.238281 -5.785156 6.253906 -4.769531 6.253906 -3.644531 Z M 7.859375 -3.636719 C 7.859375 -5.644531 6.125 -7.375 4.117188 -7.375 C 2.105469 -7.375 0.375 -5.644531 0.375 -3.636719 C 0.375 -1.625 2.105469 0.105469 4.117188 0.105469 C 6.125 0.105469 7.859375 -1.625 7.859375 -3.636719 Z M 7.859375 -3.636719 "/></g></g></g><g fill="#ffffff" fill-opacity="1"><g transform="translate(104.666099, 12.9958)"><g><path d="M 6.351562 0 L 6.351562 -7.269531 L 4.746094 -7.269531 L 4.746094 -2.738281 L 2.246094 -7.269531 L 0.640625 -7.269531 L 0.640625 0 L 2.246094 0 L 2.246094 -4.53125 L 4.746094 0 Z M 6.351562 0 "/></g></g></g><g fill="#ffffff" fill-opacity="1"><g transform="translate(113.791884, 12.9958)"><g><path d="M 4.277344 -5.878906 C 4.980469 -5.878906 5.710938 -5.589844 6.0625 -4.820312 L 7.824219 -4.820312 C 7.324219 -6.328125 5.878906 -7.375 4.277344 -7.375 C 2.222656 -7.375 0.535156 -5.6875 0.535156 -3.636719 C 0.535156 -1.582031 2.222656 0.105469 4.277344 0.105469 C 6.351562 0.105469 8.007812 -1.570312 8.007812 -3.636719 L 8.007812 -3.882812 L 4.425781 -3.882812 L 4.425781 -2.671875 L 6.277344 -2.671875 C 5.878906 -1.570312 4.980469 -1.347656 4.277344 -1.347656 C 3.121094 -1.347656 2.160156 -2.382812 2.160156 -3.613281 C 2.160156 -4.84375 3.121094 -5.878906 4.277344 -5.878906 Z M 4.277344 -5.878906 "/></g></g></g></svg>